<?xml version="1.0" encoding="UTF-8"?>
<svg width="24px" height="22px" viewBox="0 0 24 22" version="1.1" xmlns="http://www.w3.org/2000/svg" xmlns:xlink="http://www.w3.org/1999/xlink">
    <!-- Generator: sketchtool 41.2 (35397) - http://www.bohemiancoding.com/sketch -->
    <title>82FEC8A9-CBE2-4BF7-8901-F6AE6A16E3C6</title>
    <desc>Created with sketchtool.</desc>
    <defs></defs>
    <g id="Page-1" stroke="none" stroke-width="1" fill="none" fill-rule="evenodd">
        <g id="00.1---ESTRUTURA-QMS---NAVBAR-E-ÃCONES" transform="translate(-1342.000000, -218.000000)" fill="#FFFFFF">
            <path d="M1360.78261,233.559366 C1360.78261,233.856634 1360.55148,234.097561 1360.26087,234.097561 C1359.97235,234.097561 1359.73913,233.852878 1359.73913,233.559366 L1359.73913,228.196732 C1359.73913,227.899463 1359.97026,227.658537 1360.26087,227.658537 C1360.54939,227.658537 1360.78261,227.90322 1360.78261,228.196732 L1360.78261,233.559366 Z M1362.86957,233.563659 C1362.86957,233.85878 1362.63843,234.097561 1362.34783,234.097561 C1362.0593,234.097561 1361.82609,233.852878 1361.82609,233.563659 L1361.82609,229.26561 C1361.82609,228.970488 1362.05722,228.731707 1362.34783,228.731707 C1362.63635,228.731707 1362.86957,228.97639 1362.86957,229.26561 L1362.86957,233.563659 Z M1358.69565,233.563659 C1358.69565,233.85878 1358.46452,234.097561 1358.17391,234.097561 C1357.88539,234.097561 1357.65217,233.852878 1357.65217,233.563659 L1357.65217,229.26561 C1357.65217,228.970488 1357.8833,228.731707 1358.17391,228.731707 C1358.46243,228.731707 1358.69565,228.97639 1358.69565,229.26561 L1358.69565,233.563659 Z M1356.6087,233.559366 C1356.6087,233.856634 1356.37757,234.097561 1356.08696,234.097561 C1355.79843,234.097561 1355.56522,233.863073 1355.56522,233.559366 L1355.56522,230.879659 C1355.56522,230.58239 1355.79635,230.341463 1356.08696,230.341463 C1356.37548,230.341463 1356.6087,230.576488 1356.6087,230.879659 L1356.6087,233.559366 Z M1351.85252,230.969268 C1351.81652,231.154927 1351.7633,231.334683 1351.69757,231.508537 C1351.69078,231.525707 1351.68557,231.543951 1351.67878,231.561659 C1351.61148,231.730683 1351.52852,231.892732 1351.43357,232.048341 C1351.42313,232.065512 1351.4127,232.084293 1351.40226,232.101463 C1351.39287,232.115951 1351.38035,232.12722 1351.372,232.141171 C1350.95096,231.728537 1350.89043,231.668976 1350.62904,231.411951 C1350.52574,231.311073 1350.52574,231.311073 1350.48452,231.270293 C1350.47148,231.257415 1350.47148,231.257415 1350.46626,231.252585 C1350.45583,231.24239 1350.45583,231.24239 1350.4433,231.229512 C1350.40209,231.189268 1350.40209,231.189268 1350.29878,231.087854 C1349.99304,230.787902 1349.96226,230.757317 1349.30435,230.111805 L1349.30435,228.465024 L1349.30435,228.433902 L1349.30435,228.228927 L1349.30435,227.170244 C1350.784,227.425659 1351.91304,228.746195 1351.91304,230.341463 C1351.91304,230.542683 1351.8927,230.740683 1351.85826,230.933854 C1351.85617,230.945659 1351.85513,230.958 1351.85252,230.969268 Z M1345.65217,230.341463 C1345.65217,228.746195 1346.78122,227.425659 1348.26087,227.170244 L1348.26087,228.228927 L1348.26087,228.433902 L1348.26087,228.463415 L1348.26087,230.341463 C1348.26087,230.488488 1348.31878,230.628537 1348.42261,230.729951 C1349.24852,231.539659 1349.24852,231.539659 1349.57826,231.864293 C1349.68157,231.965171 1349.68157,231.965171 1349.72278,232.006488 C1349.7353,232.018829 1349.7353,232.018829 1349.74052,232.023659 C1349.75096,232.033854 1349.75096,232.033854 1349.764,232.046732 C1349.80522,232.086976 1349.80522,232.086976 1349.90852,232.18839 C1350.17043,232.444878 1350.23043,232.504439 1350.65252,232.91922 C1350.13078,233.320585 1349.48487,233.560976 1348.78261,233.560976 C1347.05409,233.560976 1345.65217,232.119707 1345.65217,230.341463 Z M1345.65217,227.508829 C1345.0047,228.265415 1344.6087,229.254878 1344.6087,230.341463 C1344.6087,231.428049 1345.0047,232.417512 1345.65217,233.174098 C1346.41704,234.066976 1347.53409,234.634146 1348.78261,234.634146 C1349.96487,234.634146 1351.02974,234.127073 1351.78887,233.314683 C1351.83739,233.26639 1351.86922,233.224537 1351.90365,233.184829 C1351.94643,233.13439 1351.99026,233.085024 1352.03148,233.033512 C1352.0753,232.978244 1352.11496,232.920829 1352.15513,232.862878 C1352.1927,232.810293 1352.23078,232.758244 1352.26626,232.702976 C1352.30487,232.642878 1352.33983,232.580098 1352.37583,232.51839 C1352.40713,232.462585 1352.44052,232.40839 1352.46974,232.350439 C1352.50313,232.286585 1352.53183,232.220585 1352.56157,232.155659 C1352.5887,232.096634 1352.61687,232.038146 1352.64087,231.977512 C1352.66748,231.911512 1352.68939,231.842829 1352.71287,231.77522 C1352.73426,231.712439 1352.75774,231.651268 1352.776,231.587415 C1352.79739,231.517122 1352.81304,231.444146 1352.83026,231.371707 C1352.84539,231.308927 1352.86261,231.248293 1352.87513,231.183902 C1352.8913,231.100195 1352.90174,231.015415 1352.9127,230.930634 C1352.92,230.875902 1352.92991,230.823854 1352.93565,230.768585 C1352.94922,230.627463 1352.95652,230.485268 1352.95652,230.341463 C1352.95652,227.970829 1351.08765,226.04878 1348.78261,226.04878 C1347.53409,226.04878 1346.41704,226.615951 1345.65217,227.508829 Z M1347.73913,221.219512 C1347.45061,221.219512 1347.21739,220.979659 1347.21739,220.682927 C1347.21739,220.386195 1347.45061,220.146341 1347.73913,220.146341 C1348.02765,220.146341 1348.26087,220.386195 1348.26087,220.682927 C1348.26087,220.979659 1348.02765,221.219512 1347.73913,221.219512 Z M1346.17391,221.219512 C1345.88539,221.219512 1345.65217,220.979659 1345.65217,220.682927 C1345.65217,220.386195 1345.88539,220.146341 1346.17391,220.146341 C1346.46243,220.146341 1346.69565,220.386195 1346.69565,220.682927 C1346.69565,220.979659 1346.46243,221.219512 1346.17391,221.219512 Z M1344.6087,221.219512 C1344.32017,221.219512 1344.08696,220.979659 1344.08696,220.682927 C1344.08696,220.386195 1344.32017,220.146341 1344.6087,220.146341 C1344.89722,220.146341 1345.13043,220.386195 1345.13043,220.682927 C1345.13043,220.979659 1344.89722,221.219512 1344.6087,221.219512 Z M1364.95652,222.292683 L1350.86957,222.292683 L1349.30435,222.292683 L1347.73913,222.292683 L1344.6087,222.292683 L1343.04348,222.292683 L1343.04348,219.609756 C1343.04348,219.315171 1343.2793,219.073171 1343.56522,219.073171 L1344.6087,219.073171 L1347.73913,219.073171 L1349.30435,219.073171 L1350.86957,219.073171 L1364.43478,219.073171 C1364.7233,219.073171 1364.95652,219.312488 1364.95652,219.608683 L1364.95652,222.292683 Z M1364.95652,238.391317 C1364.95652,238.684829 1364.7207,238.926829 1364.43478,238.926829 L1343.56522,238.926829 C1343.2767,238.926829 1343.04348,238.687512 1343.04348,238.391317 L1343.04348,237.317073 L1343.04348,226.04878 L1343.04348,223.902439 L1343.04348,223.365854 L1344.6087,223.365854 L1345.65217,223.365854 L1347.73913,223.365854 L1349.30435,223.365854 L1350.86957,223.365854 L1355.56522,223.365854 L1364.95652,223.365854 L1364.95652,226.04878 L1364.95652,236.780488 L1364.95652,238.391317 Z M1350.86957,218 L1349.30435,218 L1347.73913,218 L1344.6087,218 L1343.56522,218 C1343.38157,218 1343.2073,218.038634 1343.04348,218.099268 C1342.43878,218.321415 1342,218.910049 1342,219.608683 L1342,223.365854 L1342,223.902439 L1342,226.04878 L1342,237.317073 L1342,238.391317 C1342,239.280439 1342.70122,240 1343.56522,240 L1364.43478,240 C1365.29461,240 1366,239.279366 1366,238.391317 L1366,226.04878 L1366,219.609756 C1366,218.719561 1365.29878,218 1364.43478,218 L1350.86957,218 Z" id="ANALYTICS"></path>
        </g>
    </g>
</svg>