<?xml version="1.0" encoding="UTF-8"?>
<svg width="36px" height="36px" viewBox="0 0 36 36" version="1.1" xmlns="http://www.w3.org/2000/svg" xmlns:xlink="http://www.w3.org/1999/xlink">
    <!-- Generator: sketchtool 41.2 (35397) - http://www.bohemiancoding.com/sketch -->
    <title>B694CB7B-E68F-440F-B758-7B00DCBF8FD9</title>
    <desc>Created with sketchtool.</desc>
    <defs></defs>
    <g id="Page-1" stroke="none" stroke-width="1" fill="none" fill-rule="evenodd">
        <g id="18_5_Logist-Tool---Follow-UP---Navbar_Minimizada" transform="translate(-1240.000000, -335.000000)">
            <g id="Group-8" transform="translate(1240.000000, 335.000000)">
                <rect id="Rectangle-37" fill="#65ACFF" x="0" y="0" width="36" height="36" rx="4"></rect>
                <polyline id="Path-2" stroke="#FFFFFF" points="19 12 19 16.6649616 23.8579545 16.6649616"></polyline>
                <polyline id="Path-2-Copy" stroke="#FFFFFF" points="21.812495 10 21.812495 14.6649616 26.6704495 14.6649616"></polyline>
                <path d="M12,14.2025648 L12,12.9981716 C12,12.4468967 12.4425765,12 12.998677,12 L19.0750568,12 L23.5374778,15.8542823 L23.5374778,23.8186712 C23.5374778,24.3669792 23.0954787,24.8114707 22.53459,24.8114707 L20.9999763,24.8114707" id="Path-3" stroke="#FFFFFF"></path>
                <path d="M14.812495,12.2025648 L14.812495,10.9981716 C14.812495,10.4468967 15.2550715,10 15.811172,10 L21.8875518,10 L26.3499728,13.8542823 L26.3499728,21.8186712 C26.3499728,22.3669792 25.9079737,22.8114707 25.347085,22.8114707 L23.8124713,22.8114707" id="Path-3-Copy" stroke="#FFFFFF"></path>
                <g id="Group-13" transform="translate(9.000000, 14.000000)" stroke="#FFFFFF">
                    <g id="Group-10">
                        <g id="Group-12">
                            <path d="M0.472779384,1.32173913 L0.465465265,11.8956522 C0.465465265,12.6226087 1.11642184,13.2173913 1.92097491,13.2173913 L10.7052316,13.2173913 C11.5097846,13.2173913 12.1680553,12.6226087 12.1680553,11.8956522 L12.1680553,3.96521739 L7.77958406,0 L1.92828902,0 C1.12373596,0 0.472779384,0.594782609 0.472779384,1.32173913 Z" id="Shape"></path>
                            <polyline id="Path-2" points="7.28693182 0 7.28693182 4.66496164 12.1448864 4.66496164"></polyline>
                        </g>
                    </g>
                </g>
            </g>
            <g id="Group-8" transform="translate(1240.000000, 335.000000)">
                <rect id="Rectangle-37" fill="#65ACFF" x="0" y="0" width="36" height="36" rx="4"></rect>
                <polyline id="Path-2" stroke="#FFFFFF" points="19 12 19 16.6649616 23.8579545 16.6649616"></polyline>
                <polyline id="Path-2-Copy" stroke="#FFFFFF" points="21.812495 10 21.812495 14.6649616 26.6704495 14.6649616"></polyline>
                <path d="M12,14.2025648 L12,12.9981716 C12,12.4468967 12.4425765,12 12.998677,12 L19.0750568,12 L23.5374778,15.8542823 L23.5374778,23.8186712 C23.5374778,24.3669792 23.0954787,24.8114707 22.53459,24.8114707 L20.9999763,24.8114707" id="Path-3" stroke="#FFFFFF"></path>
                <path d="M14.812495,12.2025648 L14.812495,10.9981716 C14.812495,10.4468967 15.2550715,10 15.811172,10 L21.8875518,10 L26.3499728,13.8542823 L26.3499728,21.8186712 C26.3499728,22.3669792 25.9079737,22.8114707 25.347085,22.8114707 L23.8124713,22.8114707" id="Path-3-Copy" stroke="#FFFFFF"></path>
                <g id="Group-13" transform="translate(9.000000, 14.000000)" stroke="#FFFFFF">
                    <g id="Group-10">
                        <g id="Group-12">
                            <path d="M0.472779384,1.32173913 L0.465465265,11.8956522 C0.465465265,12.6226087 1.11642184,13.2173913 1.92097491,13.2173913 L10.7052316,13.2173913 C11.5097846,13.2173913 12.1680553,12.6226087 12.1680553,11.8956522 L12.1680553,3.96521739 L7.77958406,0 L1.92828902,0 C1.12373596,0 0.472779384,0.594782609 0.472779384,1.32173913 Z" id="Shape"></path>
                            <polyline id="Path-2" points="7.28693182 0 7.28693182 4.66496164 12.1448864 4.66496164"></polyline>
                        </g>
                    </g>
                </g>
            </g>
        </g>
    </g>
</svg>