<?xml version="1.0" encoding="UTF-8"?>
<svg width="36px" height="36px" viewBox="0 0 36 36" version="1.1" xmlns="http://www.w3.org/2000/svg" xmlns:xlink="http://www.w3.org/1999/xlink">
    <!-- Generator: sketchtool 41.2 (35397) - http://www.bohemiancoding.com/sketch -->
    <title>E9A254AA-79FE-435F-B368-86AB3431946A</title>
    <desc>Created with sketchtool.</desc>
    <defs></defs>
    <g id="Page-1" stroke="none" stroke-width="1" fill="none" fill-rule="evenodd">
        <g id="18_5_Logist-Tool---Follow-UP---Navbar_Minimizada" transform="translate(-1240.000000, -450.000000)">
            <g id="Group-16" transform="translate(1240.000000, 450.000000)">
                <g id="Group-4">
                    <rect id="Rectangle-37-Copy-5" x="0" y="0" width="36" height="36" rx="4"></rect>
                    <g id="Group-31" transform="translate(9.000000, 9.000000)" stroke="#65ACFF">
                        <g id="Group-13-Copy-5" transform="translate(0.112299, 0.000000)">
                            <g id="Group-10">
                                <g id="Group-12">
                                    <g id="Group-7">
                                        <path d="M5.66827824,1.39130435 L5.66066975,12.5217391 C5.66066975,13.2869565 6.33782581,13.9130435 7.17476027,13.9130435 L16.3125629,13.9130435 C17.1494973,13.9130435 17.8342619,13.2869565 17.8342619,12.5217391 L17.8342619,4.17391304 L13.2691648,0 L7.18236877,0 C6.34543431,0 5.66827824,0.626086957 5.66827824,1.39130435 Z" id="Shape"></path>
                                        <polyline id="Path-2" points="12.7566845 0 12.7566845 4.91048593 17.8101604 4.91048593"></polyline>
                                        <g id="Group-13-Copy-5" transform="translate(2.649733, 2.455243)">
                                            <g id="Group-10">
                                                <g id="Group-12">
                                                    <path d="M0.491807656,1.39130435 L0.484199161,12.5217391 C0.484199161,13.2869565 1.16135522,13.9130435 1.99828969,13.9130435 L11.1360923,13.9130435 C11.9730268,13.9130435 12.6577913,13.2869565 12.6577913,12.5217391 L12.6577913,4.17391304 L8.09269426,0 L2.00589818,0 C1.16896372,0 0.491807656,0.626086957 0.491807656,1.39130435 Z" id="Shape" fill="#FFFFFF"></path>
                                                    <polyline id="Path-2" points="7.5802139 0 7.5802139 4.91048593 12.6336898 4.91048593"></polyline>
                                                </g>
                                            </g>
                                        </g>
                                        <g id="Group-13" transform="translate(0.122995, 4.910486)">
                                            <g id="Group-10">
                                                <g id="Group-12">
                                                    <path d="M0.491807656,1.39130435 L0.484199161,12.5217391 C0.484199161,13.2869565 1.16135522,13.9130435 1.99828969,13.9130435 L11.1360923,13.9130435 C11.9730268,13.9130435 12.6577913,13.2869565 12.6577913,12.5217391 L12.6577913,4.17391304 L8.09269426,0 L2.00589818,0 C1.16896372,0 0.491807656,0.626086957 0.491807656,1.39130435 Z" id="Shape" fill="#FFFFFF"></path>
                                                    <polyline id="Path-2" points="7.5802139 0 7.5802139 4.91048593 12.6336898 4.91048593"></polyline>
                                                </g>
                                            </g>
                                        </g>
                                    </g>
                                </g>
                            </g>
                        </g>
                    </g>
                </g>
            </g>
            <g id="Group-16" transform="translate(1240.000000, 450.000000)">
                <g id="Group-4">
                    <rect id="Rectangle-37-Copy-5" x="0" y="0" width="36" height="36" rx="4"></rect>
                    <g id="Group-31" transform="translate(9.000000, 9.000000)" stroke="#65ACFF">
                        <g id="Group-13-Copy-5" transform="translate(0.112299, 0.000000)">
                            <g id="Group-10">
                                <g id="Group-12">
                                    <g id="Group-7">
                                        <path d="M5.66827824,1.39130435 L5.66066975,12.5217391 C5.66066975,13.2869565 6.33782581,13.9130435 7.17476027,13.9130435 L16.3125629,13.9130435 C17.1494973,13.9130435 17.8342619,13.2869565 17.8342619,12.5217391 L17.8342619,4.17391304 L13.2691648,0 L7.18236877,0 C6.34543431,0 5.66827824,0.626086957 5.66827824,1.39130435 Z" id="Shape"></path>
                                        <polyline id="Path-2" points="12.7566845 0 12.7566845 4.91048593 17.8101604 4.91048593"></polyline>
                                        <g id="Group-13-Copy-5" transform="translate(2.649733, 2.455243)">
                                            <g id="Group-10">
                                                <g id="Group-12">
                                                    <path d="M0.491807656,1.39130435 L0.484199161,12.5217391 C0.484199161,13.2869565 1.16135522,13.9130435 1.99828969,13.9130435 L11.1360923,13.9130435 C11.9730268,13.9130435 12.6577913,13.2869565 12.6577913,12.5217391 L12.6577913,4.17391304 L8.09269426,0 L2.00589818,0 C1.16896372,0 0.491807656,0.626086957 0.491807656,1.39130435 Z" id="Shape" fill="#FFFFFF"></path>
                                                    <polyline id="Path-2" points="7.5802139 0 7.5802139 4.91048593 12.6336898 4.91048593"></polyline>
                                                </g>
                                            </g>
                                        </g>
                                        <g id="Group-13" transform="translate(0.122995, 4.910486)">
                                            <g id="Group-10">
                                                <g id="Group-12">
                                                    <path d="M0.491807656,1.39130435 L0.484199161,12.5217391 C0.484199161,13.2869565 1.16135522,13.9130435 1.99828969,13.9130435 L11.1360923,13.9130435 C11.9730268,13.9130435 12.6577913,13.2869565 12.6577913,12.5217391 L12.6577913,4.17391304 L8.09269426,0 L2.00589818,0 C1.16896372,0 0.491807656,0.626086957 0.491807656,1.39130435 Z" id="Shape" fill="#FFFFFF"></path>
                                                    <polyline id="Path-2" points="7.5802139 0 7.5802139 4.91048593 12.6336898 4.91048593"></polyline>
                                                </g>
                                            </g>
                                        </g>
                                    </g>
                                </g>
                            </g>
                        </g>
                    </g>
                </g>
            </g>
        </g>
    </g>
</svg>