<?xml version="1.0" encoding="UTF-8"?>
<svg width="24px" height="24px" viewBox="0 0 24 24" version="1.1" xmlns="http://www.w3.org/2000/svg" xmlns:xlink="http://www.w3.org/1999/xlink">
    <!-- Generator: sketchtool 41.2 (35397) - http://www.bohemiancoding.com/sketch -->
    <title>C45DBA08-09B9-4A14-8F7A-4D5CA30751B6</title>
    <desc>Created with sketchtool.</desc>
    <defs>
        <rect id="path-1" x="677.41358" y="154" width="730.300889" height="728" rx="3"></rect>
        <mask id="mask-2" maskContentUnits="userSpaceOnUse" maskUnits="objectBoundingBox" x="0" y="0" width="730.300889" height="728" fill="white">
            <use xlink:href="#path-1"></use>
        </mask>
    </defs>
    <g id="Page-1" stroke="none" stroke-width="1" fill="none" fill-rule="evenodd">
        <g id="01.1---Fltro-dentro-do-upload-Copy-5" transform="translate(-1233.000000, -178.000000)">
            <g id="Group-6-Copy" transform="translate(56.000000, 64.000000)">
                <g id="Group-2-Copy">
                    <rect id="Rectangle-3-Copy-9" x="0" y="0" width="1384.50213" height="845"></rect>
                </g>
            </g>
            <use id="Rectangle-25-Copy" stroke="#DBE1E9" mask="url(#mask-2)" stroke-width="2" fill="#FFFFFF" xlink:href="#path-1"></use>
            <g id="Group-11" transform="translate(1233.000000, 178.000000)">
                <g id="Group-8">
                    <rect id="Rectangle-3" fill="#ECF4F6" x="0" y="0" width="24" height="24"></rect>
                    <path d="M4,16.5714286 L7.42857143,16.5714286 L7.42857143,20 L9.71428571,20 L9.71428571,14.2857143 L4,14.2857143 L4,16.5714286 L4,16.5714286 Z M7.42857143,7.42857143 L4,7.42857143 L4,9.71428571 L9.71428571,9.71428571 L9.71428571,4 L7.42857143,4 L7.42857143,7.42857143 L7.42857143,7.42857143 Z M14.2857143,20 L16.5714286,20 L16.5714286,16.5714286 L20,16.5714286 L20,14.2857143 L14.2857143,14.2857143 L14.2857143,20 L14.2857143,20 Z M16.5714286,7.42857143 L16.5714286,4 L14.2857143,4 L14.2857143,9.71428571 L20,9.71428571 L20,7.42857143 L16.5714286,7.42857143 L16.5714286,7.42857143 Z" id="Fill-201" fill="#000000"></path>
                </g>
            </g>
        </g>
    </g>
</svg>