<?xml version="1.0" encoding="UTF-8"?>
<svg width="36px" height="36px" viewBox="0 0 36 36" version="1.1" xmlns="http://www.w3.org/2000/svg" xmlns:xlink="http://www.w3.org/1999/xlink">
    <!-- Generator: sketchtool 41.2 (35397) - http://www.bohemiancoding.com/sketch -->
    <title>593F9187-DE68-4B70-B8DB-14FF528A7477</title>
    <desc>Created with sketchtool.</desc>
    <defs></defs>
    <g id="Page-1" stroke="none" stroke-width="1" fill="none" fill-rule="evenodd">
        <g id="00.1---ESTRUTURA-QMS---NAVBAR-E-ÃCONES" transform="translate(-1287.000000, -412.000000)" fill="#282C42">
            <path d="M1309.77543,436.217391 L1312.87791,436.217391 C1311.60861,437.823391 1309.86343,439.031957 1307.85043,439.626913 C1308.63526,438.794261 1309.28952,437.621565 1309.77543,436.217391 Z M1300.22409,436.217391 C1300.71096,437.621565 1301.36474,438.794261 1302.14957,439.626913 C1300.13657,439.031957 1298.39139,437.823391 1297.12209,436.217391 L1300.22409,436.217391 Z M1300.06722,424.26087 L1296.76435,424.26087 C1298.0523,422.416217 1299.94096,421.025913 1302.14957,420.373087 C1301.27722,421.299 1300.56604,422.644348 1300.06722,424.26087 Z M1309.93278,424.26087 C1309.43443,422.644348 1308.7223,421.299 1307.85043,420.373087 C1310.05904,421.025913 1311.9477,422.416217 1313.23565,424.26087 L1309.93278,424.26087 Z M1310.73291,429.521739 C1310.70087,427.98987 1310.51387,426.532609 1310.19535,425.217391 L1313.6087,425.217391 C1313.67948,425.217391 1313.74596,425.199696 1313.8067,425.171957 C1314.52122,426.472826 1314.94543,427.95113 1315.01909,429.521739 L1310.73291,429.521739 Z M1305.47826,435.26087 L1305.47826,430.478261 L1309.77113,430.478261 C1309.73191,432.227739 1309.48083,433.857652 1309.06857,435.26087 L1305.47826,435.26087 Z M1305.47826,436.217391 L1308.75148,436.217391 C1307.96857,438.298304 1306.80448,439.716348 1305.47826,439.992783 L1305.47826,436.217391 Z M1304.52174,436.217391 L1304.52174,439.992783 C1303.19552,439.716348 1302.03143,438.298304 1301.24852,436.217391 L1304.52174,436.217391 Z M1304.52174,430.478261 L1304.52174,435.26087 L1300.93143,435.26087 C1300.51917,433.857652 1300.26809,432.227739 1300.22887,430.478261 L1304.52174,430.478261 Z M1304.52174,425.217391 L1304.52174,429.521739 L1300.22887,429.521739 C1300.26378,427.969783 1300.46035,426.506783 1300.7937,425.217391 L1304.52174,425.217391 Z M1304.52174,424.26087 L1301.07826,424.26087 C1301.85687,421.919783 1303.09604,420.304696 1304.52174,420.007217 L1304.52174,424.26087 Z M1309.2063,425.217391 C1309.53965,426.506783 1309.73622,427.969783 1309.77113,429.521739 L1305.47826,429.521739 L1305.47826,425.217391 L1309.2063,425.217391 Z M1305.47826,424.26087 L1305.47826,420.007217 C1306.90396,420.304696 1308.14313,421.919783 1308.92174,424.26087 L1305.47826,424.26087 Z M1299.80465,425.217391 C1299.48613,426.532609 1299.29913,427.98987 1299.26661,429.521739 L1294.98043,429.521739 C1295.05409,427.969783 1295.46683,426.506783 1296.16652,425.217391 L1299.80465,425.217391 Z M1299.26661,430.478261 C1299.30296,432.198565 1299.53443,433.824652 1299.92804,435.26087 L1296.45635,435.26087 C1295.59022,433.857652 1295.06317,432.227739 1294.98043,430.478261 L1299.26661,430.478261 Z M1310.07243,435.26087 C1310.46557,433.824652 1310.69704,432.198565 1310.73291,430.478261 L1315.01909,430.478261 C1314.93635,432.227739 1314.40978,433.857652 1313.54317,435.26087 L1310.07243,435.26087 Z M1294,430 C1294,436.075348 1298.92465,441 1305,441 C1311.07535,441 1316,436.075348 1316,430 C1316,423.924652 1311.07535,419 1305,419 C1298.92465,419 1294,423.924652 1294,430 Z" id="GLOBE-Copy-2"></path>
        </g>
    </g>
</svg>