<?xml version="1.0" encoding="UTF-8"?>
<svg width="36px" height="36px" viewBox="0 0 36 36" version="1.1" xmlns="http://www.w3.org/2000/svg" xmlns:xlink="http://www.w3.org/1999/xlink">
    <!-- Generator: sketchtool 41.2 (35397) - http://www.bohemiancoding.com/sketch -->
    <title>F3F42A45-B205-43DE-899F-552744A12A04</title>
    <desc>Created with sketchtool.</desc>
    <defs></defs>
    <g id="Page-1" stroke="none" stroke-width="1" fill="none" fill-rule="evenodd">
        <g id="00.1---ESTRUTURA-QMS---NAVBAR-E-ÃCONES" transform="translate(-1342.000000, -412.000000)" fill="#FFFFFF">
            <path d="M1364.77543,436.217391 L1367.87791,436.217391 C1366.60861,437.823391 1364.86343,439.031957 1362.85043,439.626913 C1363.63526,438.794261 1364.28952,437.621565 1364.77543,436.217391 Z M1355.22409,436.217391 C1355.71096,437.621565 1356.36474,438.794261 1357.14957,439.626913 C1355.13657,439.031957 1353.39139,437.823391 1352.12209,436.217391 L1355.22409,436.217391 Z M1355.06722,424.26087 L1351.76435,424.26087 C1353.0523,422.416217 1354.94096,421.025913 1357.14957,420.373087 C1356.27722,421.299 1355.56604,422.644348 1355.06722,424.26087 Z M1364.93278,424.26087 C1364.43443,422.644348 1363.7223,421.299 1362.85043,420.373087 C1365.05904,421.025913 1366.9477,422.416217 1368.23565,424.26087 L1364.93278,424.26087 Z M1365.73291,429.521739 C1365.70087,427.98987 1365.51387,426.532609 1365.19535,425.217391 L1368.6087,425.217391 C1368.67948,425.217391 1368.74596,425.199696 1368.8067,425.171957 C1369.52122,426.472826 1369.94543,427.95113 1370.01909,429.521739 L1365.73291,429.521739 Z M1360.47826,435.26087 L1360.47826,430.478261 L1364.77113,430.478261 C1364.73191,432.227739 1364.48083,433.857652 1364.06857,435.26087 L1360.47826,435.26087 Z M1360.47826,436.217391 L1363.75148,436.217391 C1362.96857,438.298304 1361.80448,439.716348 1360.47826,439.992783 L1360.47826,436.217391 Z M1359.52174,436.217391 L1359.52174,439.992783 C1358.19552,439.716348 1357.03143,438.298304 1356.24852,436.217391 L1359.52174,436.217391 Z M1359.52174,430.478261 L1359.52174,435.26087 L1355.93143,435.26087 C1355.51917,433.857652 1355.26809,432.227739 1355.22887,430.478261 L1359.52174,430.478261 Z M1359.52174,425.217391 L1359.52174,429.521739 L1355.22887,429.521739 C1355.26378,427.969783 1355.46035,426.506783 1355.7937,425.217391 L1359.52174,425.217391 Z M1359.52174,424.26087 L1356.07826,424.26087 C1356.85687,421.919783 1358.09604,420.304696 1359.52174,420.007217 L1359.52174,424.26087 Z M1364.2063,425.217391 C1364.53965,426.506783 1364.73622,427.969783 1364.77113,429.521739 L1360.47826,429.521739 L1360.47826,425.217391 L1364.2063,425.217391 Z M1360.47826,424.26087 L1360.47826,420.007217 C1361.90396,420.304696 1363.14313,421.919783 1363.92174,424.26087 L1360.47826,424.26087 Z M1354.80465,425.217391 C1354.48613,426.532609 1354.29913,427.98987 1354.26661,429.521739 L1349.98043,429.521739 C1350.05409,427.969783 1350.46683,426.506783 1351.16652,425.217391 L1354.80465,425.217391 Z M1354.26661,430.478261 C1354.30296,432.198565 1354.53443,433.824652 1354.92804,435.26087 L1351.45635,435.26087 C1350.59022,433.857652 1350.06317,432.227739 1349.98043,430.478261 L1354.26661,430.478261 Z M1365.07243,435.26087 C1365.46557,433.824652 1365.69704,432.198565 1365.73291,430.478261 L1370.01909,430.478261 C1369.93635,432.227739 1369.40978,433.857652 1368.54317,435.26087 L1365.07243,435.26087 Z M1349,430 C1349,436.075348 1353.92465,441 1360,441 C1366.07535,441 1371,436.075348 1371,430 C1371,423.924652 1366.07535,419 1360,419 C1353.92465,419 1349,423.924652 1349,430 Z" id="GLOBE-Copy"></path>
        </g>
    </g>
</svg>