<svg width="36" height="36" viewBox="0 0 36 36" xmlns="http://www.w3.org/2000/svg"><title>593F9187-DE68-4B70-B8DB-14FF528A7477</title><path d="M22.775 24.217h3.103a10.042 10.042 0 0 1-5.028 3.41c.785-.833 1.44-2.005 1.925-3.41zm-9.55 0c.486 1.405 1.14 2.577 1.925 3.41a10.042 10.042 0 0 1-5.028-3.41h3.102zm-.158-11.956H9.764a10.051 10.051 0 0 1 5.386-3.888c-.873.926-1.584 2.271-2.083 3.888zm9.866 0c-.499-1.617-1.21-2.962-2.083-3.888a10.051 10.051 0 0 1 5.386 3.888h-3.303zm.8 5.26a20.199 20.199 0 0 0-.538-4.304h3.414c.07 0 .137-.017.198-.045a9.981 9.981 0 0 1 1.212 4.35h-4.286zm-5.255 5.74v-4.783h4.293c-.04 1.75-.29 3.38-.702 4.783h-3.59zm0 .956h3.273c-.782 2.081-1.947 3.5-3.273 3.776v-3.776zm-.956 0v3.776c-1.326-.277-2.49-1.695-3.273-3.776h3.273zm0-5.739v4.783h-3.59c-.413-1.403-.664-3.033-.703-4.783h4.293zm0-5.26v4.304h-4.293c.035-1.552.231-3.015.565-4.305h3.728zm0-.957h-3.444c.779-2.341 2.018-3.956 3.444-4.254v4.254zm4.684.956c.334 1.29.53 2.753.565 4.305h-4.293v-4.305h3.728zm-3.728-.956V8.007c1.426.298 2.665 1.913 3.444 4.254h-3.444zm-5.673.956a20.229 20.229 0 0 0-.538 4.305H7.98a9.993 9.993 0 0 1 1.187-4.305h3.638zm-.538 5.261c.036 1.72.267 3.347.661 4.783H9.456a9.974 9.974 0 0 1-1.476-4.783h4.287zm10.805 4.783c.394-1.436.625-3.062.66-4.783h4.287a9.969 9.969 0 0 1-1.476 4.783h-3.47zM7 18c0 6.075 4.925 11 11 11s11-4.925 11-11S24.075 7 18 7 7 11.925 7 18z" fill="#282C42" fill-rule="evenodd"/></svg>