<?xml version="1.0" encoding="UTF-8"?>
<svg width="22px" height="22px" viewBox="0 0 22 22" version="1.1" xmlns="http://www.w3.org/2000/svg" xmlns:xlink="http://www.w3.org/1999/xlink">
    <!-- Generator: sketchtool 41.2 (35397) - http://www.bohemiancoding.com/sketch -->
    <title>A6979FFB-C4EB-40FF-8273-356350AD22F3</title>
    <desc>Created with sketchtool.</desc>
    <defs></defs>
    <g id="Page-1" stroke="none" stroke-width="1" fill="none" fill-rule="evenodd">
        <g id="00.1---ESTRUTURA-QMS---NAVBAR-E-ÃCONES" transform="translate(-1343.000000, -409.000000)" fill="#FFFFFF">
            <path d="M1358.77543,426.217391 L1361.87791,426.217391 C1360.60861,427.823391 1358.86343,429.031957 1356.85043,429.626913 C1357.63526,428.794261 1358.28952,427.621565 1358.77543,426.217391 Z M1349.22409,426.217391 C1349.71096,427.621565 1350.36474,428.794261 1351.14957,429.626913 C1349.13657,429.031957 1347.39139,427.823391 1346.12209,426.217391 L1349.22409,426.217391 Z M1349.06722,414.26087 L1345.76435,414.26087 C1347.0523,412.416217 1348.94096,411.025913 1351.14957,410.373087 C1350.27722,411.299 1349.56604,412.644348 1349.06722,414.26087 Z M1358.93278,414.26087 C1358.43443,412.644348 1357.7223,411.299 1356.85043,410.373087 C1359.05904,411.025913 1360.9477,412.416217 1362.23565,414.26087 L1358.93278,414.26087 Z M1359.73291,419.521739 C1359.70087,417.98987 1359.51387,416.532609 1359.19535,415.217391 L1362.6087,415.217391 C1362.67948,415.217391 1362.74596,415.199696 1362.8067,415.171957 C1363.52122,416.472826 1363.94543,417.95113 1364.01909,419.521739 L1359.73291,419.521739 Z M1354.47826,425.26087 L1354.47826,420.478261 L1358.77113,420.478261 C1358.73191,422.227739 1358.48083,423.857652 1358.06857,425.26087 L1354.47826,425.26087 Z M1354.47826,426.217391 L1357.75148,426.217391 C1356.96857,428.298304 1355.80448,429.716348 1354.47826,429.992783 L1354.47826,426.217391 Z M1353.52174,426.217391 L1353.52174,429.992783 C1352.19552,429.716348 1351.03143,428.298304 1350.24852,426.217391 L1353.52174,426.217391 Z M1353.52174,420.478261 L1353.52174,425.26087 L1349.93143,425.26087 C1349.51917,423.857652 1349.26809,422.227739 1349.22887,420.478261 L1353.52174,420.478261 Z M1353.52174,415.217391 L1353.52174,419.521739 L1349.22887,419.521739 C1349.26378,417.969783 1349.46035,416.506783 1349.7937,415.217391 L1353.52174,415.217391 Z M1353.52174,414.26087 L1350.07826,414.26087 C1350.85687,411.919783 1352.09604,410.304696 1353.52174,410.007217 L1353.52174,414.26087 Z M1358.2063,415.217391 C1358.53965,416.506783 1358.73622,417.969783 1358.77113,419.521739 L1354.47826,419.521739 L1354.47826,415.217391 L1358.2063,415.217391 Z M1354.47826,414.26087 L1354.47826,410.007217 C1355.90396,410.304696 1357.14313,411.919783 1357.92174,414.26087 L1354.47826,414.26087 Z M1348.80465,415.217391 C1348.48613,416.532609 1348.29913,417.98987 1348.26661,419.521739 L1343.98043,419.521739 C1344.05409,417.969783 1344.46683,416.506783 1345.16652,415.217391 L1348.80465,415.217391 Z M1348.26661,420.478261 C1348.30296,422.198565 1348.53443,423.824652 1348.92804,425.26087 L1345.45635,425.26087 C1344.59022,423.857652 1344.06317,422.227739 1343.98043,420.478261 L1348.26661,420.478261 Z M1359.07243,425.26087 C1359.46557,423.824652 1359.69704,422.198565 1359.73291,420.478261 L1364.01909,420.478261 C1363.93635,422.227739 1363.40978,423.857652 1362.54317,425.26087 L1359.07243,425.26087 Z M1343,420 C1343,426.075348 1347.92465,431 1354,431 C1360.07535,431 1365,426.075348 1365,420 C1365,413.924652 1360.07535,409 1354,409 C1347.92465,409 1343,413.924652 1343,420 Z" id="GLOBE-Copy"></path>
        </g>
    </g>
</svg>