<?xml version="1.0" encoding="UTF-8"?>
<svg width="24px" height="19px" viewBox="0 0 24 19" version="1.1" xmlns="http://www.w3.org/2000/svg" xmlns:xlink="http://www.w3.org/1999/xlink">
    <!-- Generator: sketchtool 41.2 (35397) - http://www.bohemiancoding.com/sketch -->
    <title>EDD42B80-0F86-4DE9-9F9A-2282B18E0794</title>
    <desc>Created with sketchtool.</desc>
    <defs></defs>
    <g id="Page-1" stroke="none" stroke-width="1" fill="none" fill-rule="evenodd">
        <g id="00.1---ESTRUTURA-QMS---NAVBAR-E-ÃCONES" transform="translate(-1342.000000, -457.000000)" fill="#FFFFFF">
            <path d="M1363.00001,469.825 C1363.00001,469.695325 1363.02801,469.57135 1363.07801,469.4583 C1363.21401,469.150975 1363.51651,468.929625 1363.87701,468.886875 C1363.91751,468.882125 1363.95801,468.875 1364.00001,468.875 C1364.5515,468.875 1365,469.301075 1365,469.825 C1365,470.348925 1364.5515,470.775 1364.00001,470.775 C1363.44851,470.775 1363.00001,470.348925 1363.00001,469.825 Z M1354.50904,474.180275 C1354.50654,474.1532 1354.50004,474.12755 1354.50004,474.1 C1354.50004,473.7713 1354.67704,473.4806 1354.94604,473.310075 C1355.03154,473.255925 1355.12904,473.216975 1355.23053,473.189425 C1355.31703,473.16615 1355.40603,473.15 1355.50003,473.15 C1355.78703,473.15 1356.04403,473.26685 1356.22653,473.451625 C1356.39503,473.621675 1356.50003,473.8492 1356.50003,474.1 C1356.50003,474.623925 1356.05153,475.05 1355.50003,475.05 C1354.97754,475.05 1354.55204,474.665725 1354.50904,474.180275 Z M1348.00006,470.775 C1347.80306,470.775 1347.62056,470.71895 1347.46556,470.625375 C1347.18706,470.456275 1347.00006,470.161775 1347.00006,469.825 C1347.00006,469.796975 1347.00606,469.771325 1347.00856,469.743775 C1347.05256,469.2588 1347.47806,468.875 1348.00006,468.875 C1348.05306,468.875 1348.10456,468.8826 1348.15556,468.889725 C1348.63306,468.96145 1349.00006,469.3519 1349.00006,469.825 C1349.00006,470.0131 1348.94056,470.18695 1348.84106,470.334675 C1348.66356,470.598775 1348.35406,470.775 1348.00006,470.775 Z M1348.86106,459.375 C1348.68756,459.657625 1348.36856,459.85 1348.00006,459.85 C1347.86106,459.85 1347.72906,459.82245 1347.60856,459.774 C1347.27706,459.6391 1347.04156,459.33795 1347.00906,458.98265 C1347.00656,458.9551 1347.00006,458.9285 1347.00006,458.9 C1347.00006,458.376075 1347.44856,457.95 1348.00006,457.95 C1348.36856,457.95 1348.68756,458.142375 1348.86106,458.425 C1348.94706,458.565125 1349.00006,458.72615 1349.00006,458.9 C1349.00006,459.07385 1348.94706,459.234875 1348.86106,459.375 Z M1354.63904,459.375 C1354.55254,459.234875 1354.50004,459.07385 1354.50004,458.9 C1354.50004,458.72615 1354.55254,458.565125 1354.63904,458.425 C1354.81254,458.142375 1355.13204,457.95 1355.50003,457.95 C1356.05153,457.95 1356.50003,458.376075 1356.50003,458.9 C1356.50003,459.103775 1356.43053,459.2914 1356.31553,459.44625 C1356.13453,459.689925 1355.83703,459.85 1355.50003,459.85 C1355.45653,459.85 1355.41503,459.842875 1355.37303,459.83765 C1355.05854,459.79965 1354.79204,459.6239 1354.63904,459.375 Z M1364.00001,458.9 C1364.5515,458.9 1365,459.326075 1365,459.85 C1365,460.373925 1364.5515,460.8 1364.00001,460.8 C1363.62551,460.7981 1363.30601,460.602875 1363.13501,460.316925 C1363.05151,460.1787 1363.00001,460.020525 1363.00001,459.85 C1363.00001,459.326075 1363.44851,458.9 1364.00001,458.9 Z M1363.22551,468.0732 L1361.13352,465.461175 L1363.46051,461.670675 C1363.63351,461.717225 1363.81201,461.75 1364.00001,461.75 C1365.103,461.75 1366,460.89785 1366,459.85 C1366,458.80215 1365.103,457.95 1364.00001,457.95 C1362.89701,457.95 1362.00001,458.80215 1362.00001,459.85 C1362.00001,460.376775 1362.22751,460.853675 1362.59351,461.198525 L1360.47802,464.643225 L1356.93453,460.2186 C1357.28303,459.8766 1357.50003,459.412525 1357.50003,458.9 C1357.50003,457.85215 1356.60303,457 1355.50003,457 C1354.57104,457 1353.79454,457.608 1353.57104,458.425 L1349.92905,458.425 C1349.70555,457.608 1348.92906,457 1348.00006,457 C1346.89706,457 1346.00006,457.85215 1346.00006,458.9 C1346.00006,459.2287 1346.09606,459.533175 1346.25156,459.802975 L1342.12408,464.27415 C1341.94208,464.471275 1341.96258,464.771475 1342.17058,464.94485 C1342.37808,465.117275 1342.69408,465.0978 1342.87608,464.900675 L1346.93606,460.50265 C1347.24456,460.688375 1347.60806,460.8 1348.00006,460.8 C1348.92906,460.8 1349.70555,460.192 1349.92905,459.375 L1353.57104,459.375 C1353.79454,460.192 1354.57104,460.8 1355.50003,460.8 C1355.70003,460.8 1355.88953,460.763425 1356.07253,460.711175 L1359.93252,465.531475 L1355.81953,472.2304 C1355.71503,472.21425 1355.60953,472.2 1355.50003,472.2 C1354.95804,472.2 1354.46804,472.407575 1354.10704,472.741025 L1349.98755,469.945175 C1349.99005,469.9048 1350.00005,469.866325 1350.00005,469.825 C1350.00005,468.77715 1349.10305,467.925 1348.00006,467.925 C1346.89706,467.925 1346.00006,468.77715 1346.00006,469.825 C1346.00006,470.052525 1346.04956,470.268175 1346.12656,470.47005 L1342.17258,473.72855 C1341.96408,473.9005 1341.94158,474.200225 1342.12258,474.398775 C1342.30308,474.59685 1342.61908,474.618225 1342.82758,474.446275 L1346.69906,471.25665 C1347.05006,471.5445 1347.50106,471.725 1348.00006,471.725 C1348.68856,471.725 1349.29705,471.392975 1349.65655,470.88805 L1353.59254,473.558975 C1353.53804,473.731875 1353.50004,473.91095 1353.50004,474.1 C1353.50004,475.14785 1354.39704,476 1355.50003,476 C1356.60303,476 1357.50003,475.14785 1357.50003,474.1 C1357.50003,473.498175 1357.19853,472.9676 1356.73803,472.619425 L1360.58802,466.349425 L1362.43551,468.656025 C1362.16701,468.9795 1362.00001,469.381825 1362.00001,469.825 C1362.00001,470.87285 1362.89701,471.725 1364.00001,471.725 C1365.103,471.725 1366,470.87285 1366,469.825 C1366,468.77715 1365.103,467.925 1364.00001,467.925 C1363.72551,467.925 1363.46401,467.977725 1363.22551,468.0732 Z" id="INFOGRAPHIC-Copy"></path>
        </g>
    </g>
</svg>