<?xml version="1.0" encoding="UTF-8"?>
<svg width="24px" height="22px" viewBox="0 0 24 22" version="1.1" xmlns="http://www.w3.org/2000/svg" xmlns:xlink="http://www.w3.org/1999/xlink">
    <!-- Generator: sketchtool 41.2 (35397) - http://www.bohemiancoding.com/sketch -->
    <title>92AC12C7-109A-4B26-9A88-7F448D2FE9F6</title>
    <desc>Created with sketchtool.</desc>
    <defs></defs>
    <g id="Page-1" stroke="none" stroke-width="1" fill="none" fill-rule="evenodd">
        <g id="00.1---ESTRUTURA-QMS---NAVBAR-E-ÃCONES" transform="translate(-1342.000000, -265.000000)" fill="#FFFFFF">
            <path d="M1347.73913,267.146341 C1348.02713,267.146341 1348.26087,267.386732 1348.26087,267.682927 C1348.26087,267.979122 1348.02713,268.219512 1347.73913,268.219512 C1347.45113,268.219512 1347.21739,267.979122 1347.21739,267.682927 C1347.21739,267.386732 1347.45113,267.146341 1347.73913,267.146341 Z M1346.17391,267.146341 C1346.46191,267.146341 1346.69565,267.386732 1346.69565,267.682927 C1346.69565,267.979122 1346.46191,268.219512 1346.17391,268.219512 C1345.88591,268.219512 1345.65217,267.979122 1345.65217,267.682927 C1345.65217,267.386732 1345.88591,267.146341 1346.17391,267.146341 Z M1344.08696,267.682927 C1344.08696,267.386732 1344.3207,267.146341 1344.6087,267.146341 C1344.8967,267.146341 1345.13043,267.386732 1345.13043,267.682927 C1345.13043,267.979122 1344.8967,268.219512 1344.6087,268.219512 C1344.3207,268.219512 1344.08696,267.979122 1344.08696,267.682927 Z M1361.30435,274.121951 C1361.30435,273.826293 1361.53809,273.585366 1361.82609,273.585366 C1362.11409,273.585366 1362.34783,273.826293 1362.34783,274.121951 C1362.34783,274.41761 1362.11409,274.658537 1361.82609,274.658537 C1361.53809,274.658537 1361.30435,274.41761 1361.30435,274.121951 Z M1360.26087,274.121951 C1360.26087,274.37361 1360.32191,274.608634 1360.42313,274.820585 C1360.4033,274.839366 1360.38087,274.851171 1360.36522,274.873171 L1357.63078,278.623366 L1355.44417,275.924878 C1355.22087,275.649073 1354.80296,275.672146 1354.60939,275.970488 L1351.8327,280.255659 L1349.67322,278.035268 C1349.45826,277.814195 1349.10609,277.82761 1348.90835,278.065854 L1345.77791,281.821951 C1345.59009,282.04678 1345.61565,282.385366 1345.83478,282.578537 C1346.05391,282.771171 1346.38261,282.744878 1346.56991,282.519512 L1349.33409,279.203951 L1351.54417,281.476927 C1351.77635,281.716244 1352.16452,281.677073 1352.34713,281.395366 L1355.08991,277.163854 L1357.25148,279.831756 C1357.46696,280.097902 1357.86713,280.086634 1358.06957,279.809756 L1361.15983,275.572878 C1361.36226,275.67161 1361.58661,275.731707 1361.82609,275.731707 C1362.68904,275.731707 1363.3913,275.009463 1363.3913,274.121951 C1363.3913,273.234439 1362.68904,272.512195 1361.82609,272.512195 C1360.96313,272.512195 1360.26087,273.234439 1360.26087,274.121951 Z M1364.43478,285.926829 L1343.56522,285.926829 C1343.2767,285.926829 1343.04348,285.687512 1343.04348,285.391317 L1343.04348,270.902439 L1343.04348,270.365854 L1344.6087,270.365854 L1347.73913,270.365854 L1349.30435,270.365854 L1350.86957,270.365854 L1364.95652,270.365854 L1364.95652,285.390244 C1364.95652,285.684829 1364.7207,285.926829 1364.43478,285.926829 Z M1343.04348,266.608683 C1343.04348,266.315171 1343.2793,266.073171 1343.56522,266.073171 L1344.6087,266.073171 L1347.73913,266.073171 L1349.30435,266.073171 L1350.86957,266.073171 L1364.43478,266.073171 C1364.7233,266.073171 1364.95652,266.312488 1364.95652,266.608683 L1364.95652,269.292683 L1350.86957,269.292683 L1349.30435,269.292683 L1347.73913,269.292683 L1344.6087,269.292683 L1343.04348,269.292683 L1343.04348,266.608683 Z M1350.86957,265 L1349.30435,265 L1347.73913,265 L1344.6087,265 L1343.56522,265 C1343.38157,265 1343.2073,265.038634 1343.04348,265.099268 C1342.43878,265.321415 1342,265.909512 1342,266.608683 L1342,270.902439 L1342,285.391317 C1342,286.280439 1342.7007,287 1343.56522,287 L1364.43478,287 C1365.29461,287 1366,286.279902 1366,285.391317 L1366,269.829268 L1366,266.608683 C1366,265.719561 1365.29878,265 1364.43478,265 L1350.86957,265 Z" id="PRODUCT-DEV-Copy"></path>
        </g>
    </g>
</svg>