<?xml version="1.0" encoding="UTF-8"?>
<svg width="26px" height="18px" viewBox="0 0 26 18" version="1.1" xmlns="http://www.w3.org/2000/svg" xmlns:xlink="http://www.w3.org/1999/xlink">
    <!-- Generator: sketchtool 41.2 (35397) - http://www.bohemiancoding.com/sketch -->
    <title>70092298-60C3-44A4-AC10-D7226F72A6AA</title>
    <desc>Created with sketchtool.</desc>
    <defs></defs>
    <g id="Page-1" stroke="none" stroke-width="1" fill="none" fill-rule="evenodd">
        <g id="00.1---ESTRUTURA-QMS---NAVBAR-E-ÃCONES" transform="translate(-1341.000000, -155.000000)" stroke="#FFFFFF">
            <path d="M1361.35,162.04 C1360.67,158.59 1357.64,156 1354,156 C1351.11,156 1348.6,157.64 1347.35,160.04 C1344.34,160.36 1342,162.91 1342,166 C1342,169.31 1344.69,172 1348,172 L1361,172 C1363.76,172 1366,169.76 1366,167 C1366,164.36 1363.95,162.22 1361.35,162.04 L1361.35,162.04 Z M1349,165 L1354,160 L1359,165 L1356,165 L1356,169 L1352,169 L1352,165 L1349,165 L1349,165 Z" id="Shape"></path>
        </g>
    </g>
</svg>