<svg width="36" height="36" viewBox="0 0 36 36" xmlns="http://www.w3.org/2000/svg"><title>88F88685-ED16-49B2-A02A-81CE0627FA68</title><path d="M24.783 22.56a.529.529 0 0 1-.522.538.532.532 0 0 1-.522-.539v-5.362c0-.298.231-.538.522-.538.288 0 .522.244.522.538v5.362zm2.087.004a.526.526 0 0 1-.522.534.531.531 0 0 1-.522-.534v-4.298c0-.296.231-.534.522-.534.288 0 .522.244.522.534v4.298zm-4.174 0a.526.526 0 0 1-.522.534.531.531 0 0 1-.522-.534v-4.298c0-.296.231-.534.522-.534.288 0 .522.244.522.534v4.298zm-2.087-.005a.529.529 0 0 1-.522.539.526.526 0 0 1-.522-.539v-2.68c0-.297.231-.538.522-.538.288 0 .522.235.522.539v2.68zm-4.756-2.59c-.036.186-.09.366-.155.54-.007.017-.012.035-.02.053-.067.169-.15.33-.244.486l-.032.053c-.01.015-.022.026-.03.04l-.743-.729c-.103-.1-.103-.1-.144-.142l-.019-.017-.023-.023-.144-.142-.995-.976V16.17c1.48.256 2.609 1.576 2.609 3.171 0 .202-.02.4-.055.593l-.005.035zm-6.2-.628c0-1.595 1.128-2.915 2.608-3.17v3.17c0 .147.058.288.162.389l1.155 1.134.145.142.018.018.023.023.145.141.744.731a3.054 3.054 0 0 1-1.87.642c-1.729 0-3.13-1.441-3.13-3.22zm0-2.832a4.343 4.343 0 0 0-1.044 2.832c0 1.087.396 2.077 1.043 2.833a4.113 4.113 0 0 0 3.13 1.46 4.102 4.102 0 0 0 3.007-1.32c.048-.048.08-.09.115-.13.042-.05.086-.099.127-.15.044-.056.084-.113.124-.171.038-.053.076-.105.111-.16.039-.06.074-.123.11-.185.031-.055.065-.11.094-.168.033-.063.062-.13.092-.194.027-.06.055-.118.079-.178.026-.066.048-.135.072-.203.021-.063.045-.124.063-.188.021-.07.037-.143.054-.215.015-.063.033-.124.045-.188.016-.084.027-.169.038-.253.007-.055.017-.107.023-.162.013-.142.02-.284.02-.428 0-2.37-1.868-4.292-4.173-4.292a4.113 4.113 0 0 0-3.13 1.46zm2.086-6.29a.529.529 0 0 1-.522-.536c0-.297.234-.537.522-.537.289 0 .522.24.522.537a.529.529 0 0 1-.522.537zm-1.565 0a.529.529 0 0 1-.522-.536c0-.297.233-.537.522-.537.288 0 .522.24.522.537a.529.529 0 0 1-.522.537zm-1.565 0a.529.529 0 0 1-.522-.536c0-.297.233-.537.522-.537.288 0 .521.24.521.537a.529.529 0 0 1-.521.537zm20.348 1.074H7.043V8.61c0-.295.236-.537.522-.537H28.435c.288 0 .522.24.522.536v2.684zm0 16.098a.532.532 0 0 1-.522.536H7.565a.528.528 0 0 1-.522-.536V12.366H28.957V27.39zM14.87 7H7.565A1.604 1.604 0 0 0 6 8.609V27.39C6 28.281 6.701 29 7.565 29h20.87c.86 0 1.565-.72 1.565-1.609V8.61C30 7.72 29.299 7 28.435 7H14.87z" fill="#282C42" fill-rule="evenodd"/></svg>