<?xml version="1.0" encoding="UTF-8"?>
<svg width="22px" height="24px" viewBox="0 0 22 24" version="1.1" xmlns="http://www.w3.org/2000/svg" xmlns:xlink="http://www.w3.org/1999/xlink">
    <!-- Generator: sketchtool 41.2 (35397) - http://www.bohemiancoding.com/sketch -->
    <title>61A40761-E606-4600-AFDC-3E4E966B82BD</title>
    <desc>Created with sketchtool.</desc>
    <defs></defs>
    <g id="Page-1" stroke="none" stroke-width="1" fill="none" fill-rule="evenodd">
        <g id="00.1---ESTRUTURA-QMS---NAVBAR-E-ÃCONES" transform="translate(-1343.000000, -503.000000)" fill="#FFFFFF">
            <path d="M1363.95238,511.170213 L1362.38095,511.170213 L1359.2381,511.170213 L1356.09524,511.170213 L1355.04762,511.170213 L1352.95238,511.170213 L1351.90476,511.170213 L1348.7619,511.170213 L1345.61905,511.170213 L1344.04762,511.170213 L1344.04762,510.659574 L1344.04762,507.59983 C1344.04762,507.227574 1344.24981,506.902298 1344.55362,506.722553 C1344.65471,506.662809 1344.76681,506.619404 1344.88729,506.595404 C1344.95538,506.581617 1345.02662,506.574468 1345.09943,506.574468 L1345.61905,506.574468 L1348.2381,506.574468 L1348.2381,508.615489 C1348.2381,508.894809 1348.47224,509.12766 1348.7619,509.12766 C1349.05367,509.12766 1349.28571,508.898383 1349.28571,508.615489 L1349.28571,506.574468 L1351.90476,506.574468 L1356.09524,506.574468 L1358.71429,506.574468 L1358.71429,508.615489 C1358.71429,508.894809 1358.94843,509.12766 1359.2381,509.12766 C1359.52986,509.12766 1359.7619,508.898383 1359.7619,508.615489 L1359.7619,506.574468 L1362.38095,506.574468 L1362.90057,506.574468 C1363.32643,506.574468 1363.68943,506.821617 1363.85443,507.177021 C1363.878,507.227064 1363.8979,507.28017 1363.91257,507.334809 C1363.91833,507.354213 1363.92671,507.372596 1363.9309,507.393021 C1363.93405,507.405787 1363.933,507.420085 1363.9351,507.433872 C1363.944,507.488 1363.95238,507.542638 1363.95238,507.59983 L1363.95238,510.659574 L1363.95238,511.170213 Z M1363.95238,514.744681 L1363.95238,520.87234 L1363.95238,524.953362 C1363.95238,525.520681 1363.48305,525.978723 1362.90057,525.978723 L1352.95238,525.978723 L1345.09943,525.978723 C1344.51748,525.978723 1344.04762,525.520681 1344.04762,524.953362 L1344.04762,520.87234 L1344.04762,516.787234 L1344.04762,514.744681 L1344.04762,512.191489 L1348.7619,512.191489 L1352.95238,512.191489 L1355.04762,512.191489 L1359.2381,512.191489 L1363.95238,512.191489 L1363.95238,514.744681 Z M1362.90057,505.553191 L1362.38095,505.553191 L1359.7619,505.553191 L1359.7619,503.51217 C1359.7619,503.232851 1359.52776,503 1359.2381,503 C1358.94633,503 1358.71429,503.229277 1358.71429,503.51217 L1358.71429,505.553191 L1356.09524,505.553191 L1351.90476,505.553191 L1349.28571,505.553191 L1349.28571,503.51217 C1349.28571,503.232851 1349.05157,503 1348.7619,503 C1348.47014,503 1348.2381,503.229277 1348.2381,503.51217 L1348.2381,505.553191 L1345.61905,505.553191 L1345.09943,505.553191 C1344.95381,505.553191 1344.81238,505.567489 1344.67567,505.594553 C1344.55624,505.618553 1344.43995,505.652255 1344.3289,505.694638 C1343.55,505.994383 1343,506.733787 1343,507.599319 L1343,510.659574 L1343,511.170213 L1343,512.191489 L1343,514.744681 L1343,516.787234 L1343,520.87234 L1343,524.953362 C1343,526.085447 1343.94024,527 1345.09943,527 L1352.95238,527 L1362.90057,527 C1364.06186,527 1365,526.083404 1365,524.953362 L1365,520.87234 L1365,514.744681 L1365,512.191489 L1365,511.170213 L1365,510.659574 L1365,507.59983 C1365,507.47983 1364.98429,507.365447 1364.96438,507.252085 C1364.79414,506.286979 1363.93824,505.553191 1362.90057,505.553191 Z M1361.85714,514.234043 L1361.85714,514.744681 L1361.85714,517.297872 L1359.2381,517.297872 L1358.71429,517.297872 L1358.71429,514.744681 L1358.71429,514.234043 L1359.2381,514.234043 L1361.85714,514.234043 Z M1358.71429,513.212766 C1358.13129,513.212766 1357.66667,513.670298 1357.66667,514.234043 L1357.66667,514.744681 L1357.66667,517.297872 C1357.66667,517.865702 1358.13548,518.319149 1358.71429,518.319149 L1359.2381,518.319149 L1361.85714,518.319149 C1362.44014,518.319149 1362.90476,517.861617 1362.90476,517.297872 L1362.90476,514.744681 L1362.90476,514.234043 C1362.90476,513.666213 1362.43595,513.212766 1361.85714,513.212766 L1359.2381,513.212766 L1358.71429,513.212766 Z M1355.57143,517.297872 L1355.04762,517.297872 L1352.95238,517.297872 L1352.42857,517.297872 L1352.42857,516.787234 L1352.42857,514.744681 L1352.42857,514.234043 L1352.95238,514.234043 L1355.04762,514.234043 L1355.57143,514.234043 L1355.57143,514.744681 L1355.57143,517.297872 Z M1355.04762,513.212766 L1352.95238,513.212766 L1352.42857,513.212766 C1351.84557,513.212766 1351.38095,513.670298 1351.38095,514.234043 L1351.38095,514.744681 L1351.38095,516.787234 L1351.38095,517.297872 C1351.38095,517.865702 1351.84976,518.319149 1352.42857,518.319149 L1352.95238,518.319149 L1355.04762,518.319149 L1355.57143,518.319149 C1356.15443,518.319149 1356.61905,517.861617 1356.61905,517.297872 L1356.61905,514.744681 L1356.61905,514.234043 C1356.61905,513.666213 1356.15024,513.212766 1355.57143,513.212766 L1355.04762,513.212766 Z M1349.28571,516.787234 L1349.28571,517.297872 L1348.7619,517.297872 L1346.14286,517.297872 L1346.14286,516.787234 L1346.14286,514.744681 L1346.14286,514.234043 L1348.7619,514.234043 L1349.28571,514.234043 L1349.28571,514.744681 L1349.28571,516.787234 Z M1348.7619,513.212766 L1346.14286,513.212766 C1345.55986,513.212766 1345.09524,513.670298 1345.09524,514.234043 L1345.09524,514.744681 L1345.09524,516.787234 L1345.09524,517.297872 C1345.09524,517.865702 1345.56405,518.319149 1346.14286,518.319149 L1348.7619,518.319149 L1349.28571,518.319149 C1349.86871,518.319149 1350.33333,517.861617 1350.33333,517.297872 L1350.33333,516.787234 L1350.33333,514.744681 L1350.33333,514.234043 C1350.33333,513.666213 1349.86452,513.212766 1349.28571,513.212766 L1348.7619,513.212766 Z M1349.28571,523.425532 L1346.14286,523.425532 L1346.14286,520.87234 L1346.14286,520.361702 L1348.7619,520.361702 L1349.28571,520.361702 L1349.28571,520.87234 L1349.28571,523.425532 Z M1348.7619,519.340426 L1346.14286,519.340426 C1345.55986,519.340426 1345.09524,519.797957 1345.09524,520.361702 L1345.09524,520.87234 L1345.09524,523.425532 C1345.09524,523.993362 1345.56405,524.446809 1346.14286,524.446809 L1349.28571,524.446809 C1349.86871,524.446809 1350.33333,523.989277 1350.33333,523.425532 L1350.33333,520.87234 L1350.33333,520.361702 C1350.33333,519.793872 1349.86452,519.340426 1349.28571,519.340426 L1348.7619,519.340426 Z" id="CALENDAR-Copy"></path>
        </g>
    </g>
</svg>