<?xml version="1.0" encoding="UTF-8"?>
<svg width="24px" height="22px" viewBox="0 0 24 22" version="1.1" xmlns="http://www.w3.org/2000/svg" xmlns:xlink="http://www.w3.org/1999/xlink">
    <!-- Generator: sketchtool 41.2 (35397) - http://www.bohemiancoding.com/sketch -->
    <title>222A081C-BBCC-463D-9865-B3385F73EC2D</title>
    <desc>Created with sketchtool.</desc>
    <defs></defs>
    <g id="Page-1" stroke="none" stroke-width="1" fill="none" fill-rule="evenodd">
        <g id="00.1---ESTRUTURA-QMS---NAVBAR-E-ÃCONES" transform="translate(-1342.000000, -313.000000)" fill="#FFFFFF">
            <path d="M1358.90909,333.9 L1358.90909,329.49945 C1358.90909,329.19695 1359.154,328.95 1359.45291,328.95 L1361.09255,328.95 C1361.39309,328.95 1361.63636,329.19585 1361.63636,329.49945 L1361.63636,333.9 L1358.90909,333.9 Z M1352.36364,333.9 L1352.36364,321.79615 C1352.36364,321.4964 1352.60855,321.25 1352.90745,321.25 L1354.54709,321.25 C1354.84818,321.25 1355.09091,321.4942 1355.09091,321.79615 L1355.09091,333.9 L1352.36364,333.9 Z M1345.81818,333.9 L1345.81818,314.6533 C1345.81818,314.3486 1346.06418,314.1 1346.362,314.1 L1348.00164,314.1 C1348.30218,314.1 1348.54545,314.34585 1348.54545,314.6533 L1348.54545,333.9 L1345.81818,333.9 Z M1362.72727,333.9 L1362.72727,329.49945 C1362.72727,328.5881 1361.99527,327.85 1361.09255,327.85 L1359.45291,327.85 C1358.55345,327.85 1357.81818,328.58865 1357.81818,329.49945 L1357.81818,333.9 L1356.18182,333.9 L1356.18182,321.79615 C1356.18182,320.88645 1355.44982,320.15 1354.54709,320.15 L1352.90745,320.15 C1352.00745,320.15 1351.27273,320.887 1351.27273,321.79615 L1351.27273,333.9 L1349.63636,333.9 L1349.63636,314.6533 C1349.63636,313.7381 1348.90436,313 1348.00164,313 L1346.362,313 C1345.462,313 1344.72727,313.7403 1344.72727,314.6533 L1344.72727,333.9 L1342.54545,333.9 C1342.24436,333.9 1342,334.14585 1342,334.45 C1342,334.75415 1342.24436,335 1342.54545,335 L1344.72727,335 L1345.81818,335 L1348.54545,335 L1349.63636,335 L1351.27273,335 L1352.36364,335 L1355.09091,335 L1356.18182,335 L1357.81818,335 L1358.90909,335 L1361.63636,335 L1362.72727,335 L1365.45455,335 C1365.75618,335 1366,334.75415 1366,334.45 C1366,334.14585 1365.75618,333.9 1365.45455,333.9 L1362.72727,333.9 Z" id="CHART-Copy"></path>
        </g>
    </g>
</svg>