<?xml version="1.0" encoding="UTF-8"?>
<svg width="24px" height="24px" viewBox="0 0 24 24" version="1.1" xmlns="http://www.w3.org/2000/svg" xmlns:xlink="http://www.w3.org/1999/xlink">
    <!-- Generator: sketchtool 41.2 (35397) - http://www.bohemiancoding.com/sketch -->
    <title>FFCAD455-7C56-4803-B223-1B0AD1E1AB6F</title>
    <desc>Created with sketchtool.</desc>
    <defs>
        <rect id="path-1" x="677.41358" y="154" width="730.300889" height="728" rx="3"></rect>
        <mask id="mask-2" maskContentUnits="userSpaceOnUse" maskUnits="objectBoundingBox" x="0" y="0" width="730.300889" height="728" fill="white">
            <use xlink:href="#path-1"></use>
        </mask>
    </defs>
    <g id="Page-1" stroke="none" stroke-width="1" fill="none" fill-rule="evenodd">
        <g id="01.1---Fltro-dentro-do-upload-Copy-5" transform="translate(-1326.000000, -178.000000)">
            <g id="Group-6-Copy" transform="translate(56.000000, 64.000000)">
                <g id="Group-2-Copy">
                    <rect id="Rectangle-3-Copy-9" x="0" y="0" width="1384.50213" height="845"></rect>
                </g>
            </g>
            <use id="Rectangle-25-Copy" stroke="#DBE1E9" mask="url(#mask-2)" stroke-width="2" fill="#FFFFFF" xlink:href="#path-1"></use>
            <g id="Group-3" transform="translate(1326.000000, 178.000000)">
                <rect id="Rectangle-3" fill="#ECF4F6" x="0" y="0" width="24" height="24"></rect>
                <g id="Group-Copy" fill="#5C6071">
                    <path d="M6.28571429,14.2857143 L4,14.2857143 L4,20 L9.71428571,20 L9.71428571,17.7142857 L6.28571429,17.7142857 L6.28571429,14.2857143 L6.28571429,14.2857143 Z M4,9.71428571 L6.28571429,9.71428571 L6.28571429,6.28571429 L9.71428571,6.28571429 L9.71428571,4 L4,4 L4,9.71428571 L4,9.71428571 Z M17.7142857,17.7142857 L14.2857143,17.7142857 L14.2857143,20 L20,20 L20,14.2857143 L17.7142857,14.2857143 L17.7142857,17.7142857 L17.7142857,17.7142857 Z M14.2857143,4 L14.2857143,6.28571429 L17.7142857,6.28571429 L17.7142857,9.71428571 L20,9.71428571 L20,4 L14.2857143,4 L14.2857143,4 Z" id="Fill-202"></path>
                </g>
            </g>
        </g>
    </g>
</svg>