<svg width="36" height="36" viewBox="0 0 36 36" xmlns="http://www.w3.org/2000/svg"><title>A2747C35-B747-4A5D-8D90-BB40CD618383</title><path d="M27 21.825c0-.13.028-.254.078-.367a.995.995 0 0 1 .799-.571c.04-.005.081-.012.123-.012.552 0 1 .426 1 .95s-.448.95-1 .95c-.551 0-1-.426-1-.95zm-8.491 4.355c-.002-.027-.009-.052-.009-.08 0-.329.177-.62.446-.79.086-.054.183-.093.285-.12a1.018 1.018 0 0 1 .996.262.92.92 0 0 1 .273.648c0 .524-.448.95-1 .95-.522 0-.948-.384-.991-.87zM12 22.775c-.197 0-.38-.056-.534-.15a.94.94 0 0 1-.466-.8c0-.028.006-.054.009-.081.044-.485.47-.869.991-.869.053 0 .105.008.156.015.477.071.844.462.844.935 0 .188-.06.362-.159.51a1.01 1.01 0 0 1-.84.44zm.861-11.4a1.007 1.007 0 0 1-.86.475c-.14 0-.272-.028-.392-.076a.954.954 0 0 1-.6-.791c-.002-.028-.009-.055-.009-.083 0-.524.449-.95 1-.95.369 0 .688.192.861.475.086.14.14.301.14.475a.905.905 0 0 1-.14.475zm5.778 0a.9.9 0 0 1-.139-.475.9.9 0 0 1 .139-.475c.174-.283.493-.475.861-.475.552 0 1 .426 1 .95 0 .204-.07.391-.184.546a1.013 1.013 0 0 1-.816.404c-.043 0-.085-.007-.127-.012a.998.998 0 0 1-.734-.463zM28 10.9c.552 0 1 .426 1 .95s-.448.95-1 .95a1.007 1.007 0 0 1-.865-.483.9.9 0 0 1-.135-.467c0-.524.449-.95 1-.95zm-.774 9.173l-2.092-2.612 2.327-3.79c.173.046.351.079.539.079 1.103 0 2-.852 2-1.9s-.897-1.9-2-1.9-2 .852-2 1.9c0 .527.228 1.004.594 1.349l-2.116 3.444-3.543-4.424c.348-.342.565-.806.565-1.319 0-1.048-.897-1.9-2-1.9-.929 0-1.705.608-1.929 1.425h-3.642C13.706 9.608 12.929 9 12 9c-1.103 0-2 .852-2 1.9 0 .329.096.633.252.903l-4.128 4.471a.459.459 0 0 0 .047.67.52.52 0 0 0 .705-.043l4.06-4.398c.309.185.672.297 1.064.297.93 0 1.706-.608 1.929-1.425h3.642c.224.817 1 1.425 1.929 1.425.2 0 .39-.037.573-.089l3.86 4.82-4.113 6.7a2.077 2.077 0 0 0-.32-.031c-.542 0-1.032.208-1.393.541l-4.12-2.796c.003-.04.013-.079.013-.12 0-1.048-.897-1.9-2-1.9s-2 .852-2 1.9c0 .228.05.443.127.645L6.173 25.73a.459.459 0 0 0-.05.67c.18.198.496.22.705.047l3.871-3.19c.351.289.802.469 1.301.469.689 0 1.297-.332 1.657-.837l3.936 2.671a1.79 1.79 0 0 0-.093.541c0 1.048.897 1.9 2 1.9s2-.852 2-1.9c0-.602-.301-1.132-.762-1.48l3.85-6.27 1.848 2.306A1.823 1.823 0 0 0 26 21.825c0 1.048.897 1.9 2 1.9s2-.852 2-1.9-.897-1.9-2-1.9a2.08 2.08 0 0 0-.774.148z" fill="#FFF" fill-rule="evenodd"/></svg>