<?xml version="1.0" encoding="UTF-8"?>
<svg width="24px" height="22px" viewBox="0 0 24 22" version="1.1" xmlns="http://www.w3.org/2000/svg" xmlns:xlink="http://www.w3.org/1999/xlink">
    <!-- Generator: sketchtool 41.2 (35397) - http://www.bohemiancoding.com/sketch -->
    <title>A7630BFA-FDE0-4B6B-83BB-096488CE987B</title>
    <desc>Created with sketchtool.</desc>
    <defs></defs>
    <g id="Page-1" stroke="none" stroke-width="1" fill="none" fill-rule="evenodd">
        <g id="00.1---ESTRUTURA-QMS---NAVBAR-E-ÃCONES" transform="translate(-1342.000000, -361.000000)" fill="#FFFFFF">
            <path d="M1347.73913,363.2 C1348.02713,363.2 1348.26087,363.4464 1348.26087,363.75 C1348.26087,364.0536 1348.02713,364.3 1347.73913,364.3 C1347.45113,364.3 1347.21739,364.0536 1347.21739,363.75 C1347.21739,363.4464 1347.45113,363.2 1347.73913,363.2 Z M1346.17391,363.2 C1346.46191,363.2 1346.69565,363.4464 1346.69565,363.75 C1346.69565,364.0536 1346.46191,364.3 1346.17391,364.3 C1345.88591,364.3 1345.65217,364.0536 1345.65217,363.75 C1345.65217,363.4464 1345.88591,363.2 1346.17391,363.2 Z M1344.08696,363.75 C1344.08696,363.4464 1344.3207,363.2 1344.6087,363.2 C1344.8967,363.2 1345.13043,363.4464 1345.13043,363.75 C1345.13043,364.0536 1344.8967,364.3 1344.6087,364.3 C1344.3207,364.3 1344.08696,364.0536 1344.08696,363.75 Z M1343.04348,362.6533 C1343.04348,362.3497 1343.28035,362.1 1343.56417,362.1 L1344.6087,362.1 L1347.73913,362.1 L1349.30435,362.1 L1350.86957,362.1 L1360.26191,362.1 C1360.55043,362.1 1360.78261,362.34585 1360.78261,362.6533 L1360.78261,365.4 L1350.86957,365.4 L1349.30435,365.4 L1347.73913,365.4 L1344.6087,365.4 L1343.04348,365.4 L1343.04348,362.6533 Z M1360.78261,380.25 L1360.78261,381.3467 C1360.78261,381.6503 1360.54626,381.9 1360.26191,381.9 L1354,381.9 L1343.56417,381.9 C1343.27565,381.9 1343.04348,381.65415 1343.04348,381.3467 L1343.04348,379.7 L1343.04348,376.4 L1343.04348,373.1 L1343.04348,369.8 L1343.04348,367.05 L1343.04348,366.5 L1344.6087,366.5 L1347.73913,366.5 L1349.30435,366.5 L1350.86957,366.5 L1351.3913,366.5 L1354,366.5 L1354.52174,366.5 L1359.73913,366.5 L1360.78261,366.5 L1360.78261,368.15 L1361.30435,368.15 L1361.82609,368.15 L1361.82609,366.5 L1361.82609,362.6533 C1361.82609,361.73865 1361.12591,361 1360.26191,361 L1350.86957,361 L1349.30435,361 L1347.73913,361 L1344.6087,361 L1343.56417,361 C1343.38104,361 1343.2073,361.0396 1343.04348,361.1023 C1342.4393,361.33055 1342,361.93555 1342,362.6533 L1342,366.5 L1342,367.05 L1342,369.8 L1342,373.1 L1342,376.4 L1342,379.7 L1342,381.3467 C1342,382.2619 1342.70017,383 1343.56417,383 L1360.26191,383 C1360.93652,383 1361.51148,382.53965 1361.72904,381.9 C1361.788,381.7262 1361.82609,381.54195 1361.82609,381.3467 L1361.82609,380.25 L1361.30435,380.25 L1360.78261,380.25 Z M1354.52174,369.25 L1357.13043,369.25 L1357.13043,369.8 L1357.13043,370.0563 L1357.13043,370.35 L1356.87739,370.35 L1356.6087,370.35 L1356.08696,370.35 L1354.52174,370.35 L1354,370.35 L1354,369.8 L1354,369.25 L1354.52174,369.25 Z M1351.3913,370.35 L1344.6087,370.35 L1344.6087,369.8 L1344.6087,369.25 L1351.3913,369.25 L1351.91304,369.25 L1351.91304,369.8 L1351.91304,370.35 L1351.3913,370.35 Z M1350.34783,373.65 L1344.6087,373.65 L1344.6087,373.1 L1344.6087,372.55 L1351.3913,372.55 L1354,372.55 L1354,373.1 L1354,373.65 L1350.34783,373.65 Z M1344.6087,375.85 L1347.73913,375.85 L1347.73913,376.4 L1347.73913,376.95 L1344.6087,376.95 L1344.6087,376.4 L1344.6087,375.85 Z M1363.76017,373.48885 L1361.82609,375.5255 L1361.14835,376.23885 C1361.04765,376.345 1360.91513,376.39835 1360.78261,376.39945 C1360.648,376.4 1360.51339,376.3472 1360.41061,376.23885 L1358.84852,374.59435 C1358.64452,374.3793 1358.64452,374.03115 1358.84852,373.81665 C1359.05252,373.6016 1359.38226,373.6016 1359.58626,373.8161 L1360.77948,375.07285 L1361.82609,373.97065 L1363.02243,372.71115 C1363.22643,372.4961 1363.55617,372.4961 1363.76017,372.71115 C1363.96417,372.9262 1363.96417,373.27435 1363.76017,373.48885 Z M1361.82609,378.00655 C1361.65548,378.0324 1361.48226,378.05 1361.30435,378.05 C1361.12643,378.05 1360.95322,378.0324 1360.78261,378.00655 C1359.01339,377.73925 1357.65217,376.1382 1357.65217,374.2 C1357.65217,373.8172 1357.70696,373.4487 1357.80557,373.1 C1358.10243,372.0506 1358.81409,371.19205 1359.73913,370.72895 C1360.06417,370.5667 1360.41374,370.4501 1360.78261,370.394 C1360.95322,370.36815 1361.12643,370.35 1361.30435,370.35 C1361.48226,370.35 1361.65548,370.36815 1361.82609,370.394 C1362.93322,370.5612 1363.8807,371.25035 1364.43478,372.2178 C1364.76609,372.7964 1364.95652,373.47455 1364.95652,374.2 C1364.95652,374.9249 1364.76609,375.60305 1364.43478,376.18165 C1363.8807,377.1491 1362.93322,377.8388 1361.82609,378.00655 Z M1363.45235,369.8 C1362.95513,369.52995 1362.40678,369.3501 1361.82609,369.28245 C1361.65443,369.2621 1361.4807,369.25 1361.30435,369.25 C1361.128,369.25 1360.95426,369.2621 1360.78261,369.28245 C1360.42,369.3248 1360.072,369.415 1359.73913,369.53875 C1359.53878,369.6141 1359.34261,369.69825 1359.15635,369.8 C1357.94226,370.45945 1357.0407,371.66065 1356.72974,373.1 C1356.65357,373.45475 1356.6087,373.8216 1356.6087,374.2 C1356.6087,376.74815 1358.43478,378.84365 1360.78261,379.1181 C1360.95113,379.13735 1361.12226,379.1489 1361.29548,379.14945 C1361.48643,379.1489 1361.65757,379.13735 1361.82609,379.1181 C1362.82365,379.0015 1363.72574,378.5538 1364.43478,377.8839 C1365.39426,376.9786 1366,375.6652 1366,374.2 C1366,372.73535 1365.39426,371.42195 1364.43478,370.5161 C1364.13843,370.23615 1363.80974,369.99415 1363.45235,369.8 Z" id="REVIEW-Copy"></path>
        </g>
    </g>
</svg>