<?xml version="1.0" encoding="UTF-8"?>
<svg width="36px" height="36px" viewBox="0 0 36 36" version="1.1" xmlns="http://www.w3.org/2000/svg" xmlns:xlink="http://www.w3.org/1999/xlink">
    <!-- Generator: sketchtool 41.2 (35397) - http://www.bohemiancoding.com/sketch -->
    <title>CE8D138F-C46C-4BA8-B9DC-9D32D51EB02F</title>
    <desc>Created with sketchtool.</desc>
    <defs></defs>
    <g id="Page-1" stroke="none" stroke-width="1" fill="none" fill-rule="evenodd">
        <g id="00.1---ESTRUTURA-QMS---NAVBAR-E-ÃCONES" transform="translate(-1287.000000, -268.000000)" fill="#282C42">
            <path d="M1298.73913,277.146341 C1299.02713,277.146341 1299.26087,277.386732 1299.26087,277.682927 C1299.26087,277.979122 1299.02713,278.219512 1298.73913,278.219512 C1298.45113,278.219512 1298.21739,277.979122 1298.21739,277.682927 C1298.21739,277.386732 1298.45113,277.146341 1298.73913,277.146341 Z M1297.17391,277.146341 C1297.46191,277.146341 1297.69565,277.386732 1297.69565,277.682927 C1297.69565,277.979122 1297.46191,278.219512 1297.17391,278.219512 C1296.88591,278.219512 1296.65217,277.979122 1296.65217,277.682927 C1296.65217,277.386732 1296.88591,277.146341 1297.17391,277.146341 Z M1295.08696,277.682927 C1295.08696,277.386732 1295.3207,277.146341 1295.6087,277.146341 C1295.8967,277.146341 1296.13043,277.386732 1296.13043,277.682927 C1296.13043,277.979122 1295.8967,278.219512 1295.6087,278.219512 C1295.3207,278.219512 1295.08696,277.979122 1295.08696,277.682927 Z M1312.30435,284.121951 C1312.30435,283.826293 1312.53809,283.585366 1312.82609,283.585366 C1313.11409,283.585366 1313.34783,283.826293 1313.34783,284.121951 C1313.34783,284.41761 1313.11409,284.658537 1312.82609,284.658537 C1312.53809,284.658537 1312.30435,284.41761 1312.30435,284.121951 Z M1311.26087,284.121951 C1311.26087,284.37361 1311.32191,284.608634 1311.42313,284.820585 C1311.4033,284.839366 1311.38087,284.851171 1311.36522,284.873171 L1308.63078,288.623366 L1306.44417,285.924878 C1306.22087,285.649073 1305.80296,285.672146 1305.60939,285.970488 L1302.8327,290.255659 L1300.67322,288.035268 C1300.45826,287.814195 1300.10609,287.82761 1299.90835,288.065854 L1296.77791,291.821951 C1296.59009,292.04678 1296.61565,292.385366 1296.83478,292.578537 C1297.05391,292.771171 1297.38261,292.744878 1297.56991,292.519512 L1300.33409,289.203951 L1302.54417,291.476927 C1302.77635,291.716244 1303.16452,291.677073 1303.34713,291.395366 L1306.08991,287.163854 L1308.25148,289.831756 C1308.46696,290.097902 1308.86713,290.086634 1309.06957,289.809756 L1312.15983,285.572878 C1312.36226,285.67161 1312.58661,285.731707 1312.82609,285.731707 C1313.68904,285.731707 1314.3913,285.009463 1314.3913,284.121951 C1314.3913,283.234439 1313.68904,282.512195 1312.82609,282.512195 C1311.96313,282.512195 1311.26087,283.234439 1311.26087,284.121951 Z M1315.43478,295.926829 L1294.56522,295.926829 C1294.2767,295.926829 1294.04348,295.687512 1294.04348,295.391317 L1294.04348,280.902439 L1294.04348,280.365854 L1295.6087,280.365854 L1298.73913,280.365854 L1300.30435,280.365854 L1301.86957,280.365854 L1315.95652,280.365854 L1315.95652,295.390244 C1315.95652,295.684829 1315.7207,295.926829 1315.43478,295.926829 Z M1294.04348,276.608683 C1294.04348,276.315171 1294.2793,276.073171 1294.56522,276.073171 L1295.6087,276.073171 L1298.73913,276.073171 L1300.30435,276.073171 L1301.86957,276.073171 L1315.43478,276.073171 C1315.7233,276.073171 1315.95652,276.312488 1315.95652,276.608683 L1315.95652,279.292683 L1301.86957,279.292683 L1300.30435,279.292683 L1298.73913,279.292683 L1295.6087,279.292683 L1294.04348,279.292683 L1294.04348,276.608683 Z M1301.86957,275 L1300.30435,275 L1298.73913,275 L1295.6087,275 L1294.56522,275 C1294.38157,275 1294.2073,275.038634 1294.04348,275.099268 C1293.43878,275.321415 1293,275.909512 1293,276.608683 L1293,280.902439 L1293,295.391317 C1293,296.280439 1293.7007,297 1294.56522,297 L1315.43478,297 C1316.29461,297 1317,296.279902 1317,295.391317 L1317,279.829268 L1317,276.608683 C1317,275.719561 1316.29878,275 1315.43478,275 L1301.86957,275 Z" id="PRODUCT-DEV-Copy-2"></path>
        </g>
    </g>
</svg>