<?xml version="1.0" encoding="UTF-8"?>
<svg width="72px" height="59px" viewBox="0 0 72 59" version="1.1" xmlns="http://www.w3.org/2000/svg" xmlns:xlink="http://www.w3.org/1999/xlink">
    <!-- Generator: sketchtool 41.2 (35397) - http://www.bohemiancoding.com/sketch -->
    <title>F8EB53D7-B575-43A9-AC1A-9A52F0D4BFA6</title>
    <desc>Created with sketchtool.</desc>
    <defs></defs>
    <g id="Page-1" stroke="none" stroke-width="1" fill="none" fill-rule="evenodd">
        <g id="00.1---ESTRUTURA-QMS---NAVBAR-E-ÃCONES" transform="translate(-961.000000, -218.000000)">
            <g id="Group-2" transform="translate(961.000000, 218.000000)">
                <g id="Group" transform="translate(17.000000, 8.000000)">
                    <g id="Group-75">
                        <path d="M6.02,4 L6,36 C6,38.2 7.78,40 9.98,40 L34,40 C36.2,40 38,38.2 38,36 L38,12 L26,0 L10,0 C7.8,0 6.02,1.8 6.02,4 Z" id="Path" stroke="#50566E"></path>
                        <g id="Group-74" transform="translate(13.000000, 9.000000)" stroke="#4E546C">
                            <path d="M0,1 L17.3338321,1" id="Path-24"></path>
                            <path d="M0,8 L17.3338321,8" id="Path-24-Copy"></path>
                            <path d="M0,15 L17.3338321,15" id="Path-24-Copy-2"></path>
                            <path d="M0,22 L17.3338321,22" id="Path-24-Copy-3"></path>
                        </g>
                        <g id="Group-73" transform="translate(0.000000, 25.000000)" fill="#FF7272">
                            <rect id="Rectangle-36" x="0" y="-1.77635684e-15" width="20.5333333" height="20" rx="10"></rect>
                        </g>
                    </g>
                    <polyline id="Fill-205" fill="#FFFFFF" points="15 31.9064286 14.0935714 31 10.5 34.5935714 6.90642857 31 6 31.9064286 9.59357143 35.5 6 39.0935714 6.90642857 40 10.5 36.4064286 14.0935714 40 15 39.0935714 11.4064286 35.5 15 31.9064286"></polyline>
                </g>
            </g>
        </g>
    </g>
</svg>